<?xml version="1.0" encoding="UTF-8"?>
<svg width="16px" height="24px" viewBox="0 0 17 25" version="1.1" xmlns="http://www.w3.org/2000/svg" xmlns:xlink="http://www.w3.org/1999/xlink">
<style> @keyframes kolourlover { 0% { stroke: #2979FF; } 10% { stroke: #FF1744; } 20% { stroke: #00E676; } 30% { stroke: #651FFF; } 40% { stroke: #FFEA00; } 50% { stroke: #F50057; } 60% { stroke: #00B0FF; } 70% { stroke: #D500F9; } 80% { stroke: #76FF03; } 90% { stroke: #FF3D00; } 100% { stroke: #1DE9B6; } } .pin { animation: kolourlover 15s infinite alternate; } </style>
    <g id="logo" class="pin" fill="none" fill-rule="evenodd" stroke-width="1.25" stroke="#FFF">
        <g id="v-pin" transform="translate(1, 1)">
            <path d="M15,7.39923374 C15,3.37842892 11.64225,0.118684211 7.5,0.118684211 C3.358,0.118684211 0,3.37842892 0,7.39923374 C0,9.11889954 0.616,10.6987788 1.643,11.9444808 C1.64325,11.9447235 1.6435,11.9452089 1.64325,11.9454515 C1.643,11.9456942 1.64275,11.9459369 1.64225,11.9459369 C3.57875,14.2936715 6.3155,17.6119032 7.207,18.6925795 C7.27825,18.7787327 7.386,18.8289684 7.49975,18.8292111 C7.61375,18.8292111 7.72175,18.779218 7.79275,18.6928222 C8.68375,17.6123886 11.41975,14.2956129 13.35625,11.9476357 C13.3565,11.947393 13.35675,11.9469077 13.3565,11.946665 C13.35625,11.9464223 13.356,11.9461796 13.3555,11.9461796 C14.3835,10.6999922 15,9.12011296 15,7.39923374 Z" id="pin" fill="none" fill-rule="nonzero"></path>
            <path d="M1.72942318,16.3105263 C3.63670983,18.6949425 6.33321853,22.0629304 7.21160988,23.1598111 C7.28181221,23.2472562 7.38797785,23.2982452 7.50005527,23.2984916 C7.61237901,23.2984916 7.71879097,23.2477488 7.78874698,23.1600575 C8.66664568,22.0634231 11.3624154,18.6969131 13.270441,16.3137285" id="v"></path>
            <circle id="circle" fill-rule="nonzero" cx="7.5" cy="7.61868421" r="2.36842105"></circle>
        </g>
    </g>
</svg>
